PathFileType	4	(X/Y/Z)	output.trc
DataRate	CameraRate	NumFrames	NumMarkers	Units	OrigDataRate	OrigDataStartFrame	OrigNumFrames
50	50	13	18	mm	50	170	1
Frame#	Time	K4ABT_JOINT_PELVIS			K4ABT_JOINT_SPINE_NAVEL			K4ABT_JOINT_SPINE_CHEST			K4ABT_JOINT_NECK			K4ABT_JOINT_CLAVICLE_LEFT			K4ABT_JOINT_SHOULDER_LEFT			K4ABT_JOINT_ELBOW_LEFT			K4ABT_JOINT_WRIST_LEFT			K4ABT_JOINT_HAND_LEFT			K4ABT_JOINT_HANDTIP_LEFT			K4ABT_JOINT_THUMB_LEFT			K4ABT_JOINT_CLAVICLE_RIGHT			K4ABT_JOINT_SHOULDER_RIGHT			K4ABT_JOINT_ELBOW_RIGHT			K4ABT_JOINT_WRIST_RIGHT			K4ABT_JOINT_HAND_RIGHT			K4ABT_JOINT_HANDTIP_RIGHT			K4ABT_JOINT_THUMB_RIGHT		
		X1	Y1	Z1	X2	Y2	Z2	X3	Y3	Z3	X4	Y4	Z4	X5	Y5	Z5	X6	Y6	Z6	X7	Y7	Z7	X8	Y8	Z8	X9	Y9	Z9	X10	Y10	Z10	X11	Y11	Z11	X12	Y12	Z12	X13	Y13	Z13	X14	Y14	Z14	X15	Y15	Z15	X16	Y16	Z16	X17	Y17	Z17	X18	Y18	Z18
169	5933555.000000	-170.529694	-154.500610	1526.339966	-165.707779	-338.431091	1542.972412	-160.463013	-485.846100	1550.372681	-145.792465	-706.574158	1590.462524	-113.387421	-667.894897	1584.982910	29.482708	-630.656128	1574.277954	84.754440	-350.539246	1593.437012	38.426426	-522.323181	1432.102661	26.110086	-620.394653	1418.943726	-26.706673	-689.665527	1489.172119	-43.955578	-622.314209	1437.994507	-182.958572	-671.916565	1584.833130	-316.953827	-655.119812	1567.258911	-436.884308	-422.539703	1695.860596	-422.041656	-235.076630	1541.614990	-377.259033	-157.580261	1482.320435	-404.631195	-165.514313	1588.547607	-350.244415	-166.780396	1469.204834
170	5966877.000000	-176.919464	-157.347122	1502.516113	-168.592026	-339.931488	1512.812622	-163.429276	-485.463501	1527.383911	-159.461578	-705.465820	1562.190308	-125.604988	-668.427246	1558.808960	17.511309	-641.361389	1576.177124	98.169579	-369.864868	1562.434204	51.637901	-540.601929	1403.298706	29.300400	-633.856384	1379.476440	-47.802471	-713.408936	1383.944214	-34.322052	-646.725830	1379.541138	-194.601669	-669.464172	1556.199829	-328.667389	-656.955933	1547.261597	-450.522125	-440.658386	1695.055054	-434.766418	-252.182358	1545.682861	-403.432526	-169.357086	1486.721069	-431.939362	-177.505615	1591.594116	-387.103394	-160.432938	1479.957153
171	6000222.000000	-179.806396	-154.395859	1486.435547	-171.581635	-336.074036	1493.959473	-167.886719	-480.690826	1509.682861	-168.003082	-698.937439	1547.526733	-133.679199	-662.753418	1543.869019	9.065822	-638.871399	1561.903442	98.911827	-372.886841	1536.013916	56.777500	-540.808960	1374.697510	26.848000	-624.043518	1331.942139	-40.732605	-710.271912	1344.235107	-25.493637	-637.216309	1333.559082	-202.270004	-662.632385	1540.791626	-335.630768	-650.739075	1532.057861	-452.618439	-448.704651	1699.457275	-437.058594	-264.149811	1547.404053	-414.326416	-198.088654	1467.976318	-434.432343	-174.437317	1571.796631	-397.140015	-162.879074	1473.763428
172	6033555.000000	-181.035767	-148.420761	1462.133667	-174.810593	-330.768829	1473.241699	-172.995407	-475.428406	1493.863892	-180.049545	-692.593506	1541.513672	-144.516083	-657.379700	1537.108032	-1.341850	-634.332336	1557.664917	101.933334	-373.808868	1517.315186	74.427795	-529.898621	1340.250977	49.996128	-610.213257	1288.419189	-4.485264	-699.306335	1325.177246	-17.104223	-610.216064	1306.440674	-213.274261	-655.579956	1532.276367	-346.118225	-641.884583	1514.364624	-486.059296	-441.838196	1668.072998	-468.738129	-251.793381	1521.464600	-443.565277	-205.359406	1429.296509	-468.746124	-187.705551	1533.682373	-424.776398	-184.934479	1421.675049
173	6066888.000000	-179.376984	-127.390549	1442.277466	-178.622055	-308.199707	1456.771118	-180.767578	-451.886292	1476.222168	-184.160065	-667.660461	1522.645996	-149.758163	-631.670959	1520.456177	-9.007096	-610.907898	1550.171143	109.982903	-360.034058	1507.211060	84.209450	-503.717407	1322.007080	73.024460	-580.057251	1261.738281	9.076573	-656.147461	1308.542969	4.727490	-580.207886	1263.108765	-217.601868	-631.893738	1511.577393	-348.991852	-630.646057	1486.804199	-511.428192	-437.026184	1621.276855	-492.301300	-259.137299	1463.111694	-462.849976	-195.073105	1384.748535	-499.392517	-166.918121	1482.386719	-431.840057	-177.928299	1383.984741
174	6100200.000000	-173.039719	-118.804726	1420.323364	-181.956253	-295.518463	1441.723877	-189.663910	-436.413574	1461.498291	-192.040222	-649.399963	1502.388916	-158.723862	-613.516907	1502.725708	-22.480875	-592.860657	1540.220825	109.694778	-353.541473	1501.893311	111.288483	-471.894867	1302.701416	101.505486	-540.087463	1235.560425	57.386803	-623.473816	1288.027222	38.437210	-566.248962	1256.227417	-224.840637	-614.503113	1490.584229	-354.228882	-615.969116	1467.843994	-526.188171	-414.570465	1562.673462	-510.435516	-231.362396	1416.927368	-470.371826	-180.579193	1336.031128	-521.095398	-149.810654	1424.000244	-451.034363	-160.671051	1333.428345
175	6133555.000000	-173.039993	-124.986237	1401.964844	-187.498260	-301.898010	1437.027100	-198.725800	-444.131378	1460.818481	-200.758041	-658.350708	1511.658203	-167.083374	-621.796387	1510.782715	-30.182228	-591.567078	1547.692993	101.903725	-347.852692	1506.472168	129.119568	-449.840515	1296.266968	137.579453	-503.687012	1215.237915	90.373550	-571.541687	1287.182495	75.031212	-500.140533	1202.931030	-234.058960	-623.623169	1497.786255	-361.286652	-616.864563	1458.345093	-538.549988	-399.151337	1510.510498	-522.096069	-210.952255	1365.429443	-477.472473	-175.728500	1276.974976	-524.537781	-164.890335	1373.254028	-450.471008	-153.296310	1274.458130
176	6166877.000000	-168.394455	-134.386383	1400.713501	-189.287811	-310.115570	1436.911743	-205.747025	-451.154236	1463.183960	-208.890152	-665.473694	1511.920288	-175.615173	-628.685364	1513.393555	-43.236645	-589.561768	1556.909668	93.085182	-350.069550	1508.516113	150.514832	-419.947144	1291.804443	145.610260	-481.157684	1216.079224	112.642303	-553.645447	1291.095825	81.131729	-479.608154	1216.335815	-241.551834	-630.968872	1496.373901	-362.780334	-615.676392	1443.468750	-540.164368	-392.812378	1455.243896	-504.408966	-216.358398	1299.888062	-465.305328	-178.707550	1210.039185	-520.980774	-162.791138	1300.651978	-427.046295	-168.761017	1213.186890
177	6200222.000000	-171.880203	-128.521744	1400.471069	-191.953506	-301.116302	1442.640869	-207.145187	-441.771912	1463.086670	-206.584152	-655.833069	1502.096558	-174.760010	-618.685486	1506.616211	-46.309010	-580.957153	1557.637573	90.396332	-342.678955	1522.427490	159.898438	-404.469147	1309.389526	166.539902	-432.066833	1217.151611	157.806213	-506.878723	1294.962769	126.372513	-437.507111	1196.197266	-239.117493	-621.876709	1486.693604	-360.812378	-602.473022	1439.941406	-527.659790	-384.006012	1376.156494	-487.082336	-225.859879	1206.587402	-413.300385	-204.053970	1136.743530	-468.565460	-189.623352	1226.567261	-396.085785	-179.363724	1137.738281
178	6233544.000000	-175.116699	-132.897720	1376.587524	-193.487045	-302.213196	1434.250854	-208.456360	-442.305054	1462.767090	-209.280243	-657.077087	1504.598999	-177.404938	-619.681335	1509.684204	-49.474178	-576.768311	1560.178467	91.117859	-337.798187	1533.800171	177.281128	-381.426880	1320.927368	178.247696	-405.703156	1226.968994	186.279266	-474.200439	1311.250610	141.610718	-412.711426	1206.092773	-241.472229	-623.107178	1487.687256	-356.528687	-597.359741	1427.134155	-510.517944	-382.900116	1323.086792	-445.404266	-246.679260	1140.771973	-362.111206	-258.911896	1078.871216	-397.128601	-276.527618	1178.479858	-341.228455	-235.799118	1107.386963
179	6266888.000000	-180.788528	-135.100082	1369.385620	-199.704453	-304.199768	1426.412964	-215.167862	-444.000671	1454.684814	-214.792679	-658.425659	1496.077393	-183.009476	-621.024170	1500.746948	-49.796135	-577.227234	1532.572510	135.129959	-372.992493	1495.723877	209.051483	-336.936462	1277.399170	188.269455	-397.541412	1204.755981	203.113770	-456.978088	1294.536987	139.340195	-407.992645	1207.250854	-247.259293	-624.581970	1479.731567	-362.161713	-597.396179	1420.085083	-491.653107	-373.560303	1304.551392	-370.961121	-299.731903	1115.343384	-295.241669	-345.205292	1059.887207	-360.580994	-315.044128	1138.848999	-270.275879	-311.509094	1090.886719
180	6300211.000000	-196.428909	-139.697510	1344.879883	-204.351608	-305.368195	1416.017700	-213.578491	-443.183258	1457.709229	-209.620377	-658.831665	1499.096924	-177.769714	-620.972168	1502.357910	-43.841049	-574.630066	1531.115967	138.960083	-366.806335	1491.907349	188.235168	-319.187378	1267.514282	193.616714	-386.773193	1197.574585	203.365067	-450.600647	1285.772095	137.869736	-409.057037	1206.255005	-243.251968	-625.044800	1484.196411	-353.315399	-599.804565	1413.862061	-496.495178	-386.583954	1290.713623	-362.447754	-347.141754	1098.552368	-306.979919	-360.633209	1010.567078	-343.491730	-313.175781	1099.775269	-285.185699	-325.998627	999.047424
181	6333555.000000	-193.778503	-139.368362	1338.316162	-202.391830	-305.278839	1409.089478	-211.996872	-442.925476	1451.545410	-210.181183	-657.869812	1497.223755	-178.020676	-620.195007	1499.999512	-43.936001	-573.406982	1527.727661	129.084717	-355.930939	1496.005859	174.123535	-313.260406	1269.588501	191.313187	-382.354309	1203.027832	203.634750	-451.289062	1287.041626	138.263916	-408.799408	1206.860718	-243.427856	-624.086731	1481.380127	-352.526917	-601.678223	1408.479492	-491.205414	-393.947662	1271.210083	-346.313965	-369.273529	1084.352051	-295.211487	-374.402039	992.833923	-319.702209	-361.761230	1096.746094	-260.777344	-349.337677	996.308960
